# xmcd
#
# Track frame offsets:
#	150
#	12399
#	25845
#	39004
#	52562
#	63475
#	76555
#	89006
#	101824
#	111810
#	122540
#	135849
#	152791
#	163429
#	176193
#	188268
#	200612
#	210886
#	222581
#	236298
#
# Disc length: 3351 seconds
#
# Revision: 0
# Processed by: cddbd v1.5.2PL0 Copyright (c) Steve Scherf et al.
# Submitted via: EasyCDDAExtractor 16.0.8.2
#
DISCID=fb0d1514
DTITLE=Συλλογικός δίσκος - Όταν τα σλόου τα έλεγαν μπλουζ 2-1
DYEAR=2011
DGENRE=Ξένη σλόου
TTITLE0=Paul Anka - You are my destiny
TTITLE1=The Five Satins - In the still of the night
TTITLE2=Ben E. King - Spanish Harlem
TTITLE3=Peggy Lee-Victor Young - Johnny guitar
TTITLE4=The Clovers - Devil or Angel
TTITLE5=Pat Boone - Anastasia
TTITLE6=The Platters - My prayer
TTITLE7=Nat King Cole - Non dimenticar
TTITLE8=Little Anthony-The Imperials - Tears on my pillow
TTITLE9=Santo and Johnny - Sleep walk
TTITLE10=Julie London - Cry me a river
TTITLE11=Ray Charles - Don't let the sun catch you cryin'
TTITLE12=Percy Faith - Theme from 'a summer place'
TTITLE13=Brenda Lee - Emotions
TTITLE14=Big Maybelle - Candy
TTITLE15=Matt Monro - Portrait of my love
TTITLE16=The Platters - My serenade
TTITLE17=Ricky Nelson - Young emotions
TTITLE18=Jane Morgan - Romantica
TTITLE19=Elvis Presley - That's when your heartaches begin
EXTD=
EXTT0=
EXTT1=
EXTT2=
EXTT3=
EXTT4=
EXTT5=
EXTT6=
EXTT7=
EXTT8=
EXTT9=
EXTT10=
EXTT11=
EXTT12=
EXTT13=
EXTT14=
EXTT15=
EXTT16=
EXTT17=
EXTT18=
EXTT19=
PLAYORDER=
